# xmcd CD database file
#
# Track frame offsets:
#	150
#	18480
#	39087
#
# Disc length: 763 seconds
#
# Revision: 0
# Processed by: cddbd v1.5PL3 Copyright (c) Steve Scherf et al.
# Submitted via: CDex 1.51
#
DISCID=1602f903
DTITLE=machine - Hero
DYEAR=1999
DGENRE=Rock
TTITLE0=Hero
TTITLE1=ダブル ラブ ショック
TTITLE2=Hero (Instrumental)
EXTD=YEAR: 1999
EXTT0=
EXTT1=
EXTT2=
PLAYORDER=
